<?xml version="1.0" encoding="UTF-8"?>
<svg xmlns="http://www.w3.org/2000/svg" role="img" viewBox="0 0 1920 1080" width="3840" height="2160">
  <title>azdocs background dark</title>
  <defs><linearGradient id="ribbon-deep" x1="0" y1="1" x2="0.72" y2="0">
      <stop offset="0" stop-color="#0754bd"/>
      <stop offset="0.56" stop-color="#0b68d5"/>
      <stop offset="1" stop-color="#1479e6"/>
    </linearGradient>
    <linearGradient id="ribbon-light" x1="0.12" y1="0" x2="0.88" y2="1">
      <stop offset="0" stop-color="#39c8f5"/>
      <stop offset="0.48" stop-color="#21b1ed"/>
      <stop offset="1" stop-color="#168fe2"/>
    </linearGradient>
    <linearGradient id="node-blue" x1="0" y1="0" x2="0" y2="1">
      <stop offset="0" stop-color="#27b5f5"/>
      <stop offset="1" stop-color="#0b86e7"/>
    </linearGradient></defs>
<rect width="1920" height="1080" fill="#14181d"/>
  <g transform="translate(1110 -55) scale(2.25)" opacity="0.075">
    <g>
    <path d="M52 428 L203 84 L247.68 190 L156 428 Z" fill="url(#ribbon-deep)"/>
    <path d="M203 84 H300 L460 428 H348 Z" fill="url(#ribbon-light)"/>
    <path d="M300 84 L338 166 H318 Q300 166 300 148 Z" fill="#f3eee5"/>
    <g>
      <path d="M256 253 L184 352 L328 352 Z" fill="none" stroke="#faf8f4" stroke-width="20" stroke-linejoin="round"/>
      <g fill="url(#node-blue)" stroke="#52c9f8" stroke-width="2">
        <circle cx="256" cy="253" r="34"/>
        <circle cx="184" cy="352" r="34"/>
        <circle cx="328" cy="352" r="34"/>
      </g>
    </g>
  </g>
  </g>
  <path d="M0 890 H1050 V770 H1260" fill="none" stroke="#3a4048" stroke-width="3"/>
  <circle cx="1050" cy="890" r="8" fill="#3a4048"/>
  <circle cx="1260" cy="770" r="8" fill="#3a4048"/>
</svg>
